<?xml version="1.0" encoding="UTF-8" standalone="no"?>
<!-- Created with Inkscape (http://www.inkscape.org/) -->

<svg
   xmlns:dc="http://purl.org/dc/elements/1.1/"
   xmlns:cc="http://creativecommons.org/ns#"
   xmlns:rdf="http://www.w3.org/1999/02/22-rdf-syntax-ns#"
   xmlns:svg="http://www.w3.org/2000/svg"
   xmlns="http://www.w3.org/2000/svg"
   xmlns:sodipodi="http://sodipodi.sourceforge.net/DTD/sodipodi-0.dtd"
   xmlns:inkscape="http://www.inkscape.org/namespaces/inkscape"
   version="1.1"
   id="svg2"
   xml:space="preserve"
   width="400"
   height="400"
   viewBox="0 0 400 400"
   sodipodi:docname="safari-pinned-tab.svg"
   inkscape:version="0.91 r13725"
   inkscape:export-filename="/home/uv/borg/nymbl/branding/apple-tocuh.png"
   inkscape:export-xdpi="40.5"
   inkscape:export-ydpi="40.5"><metadata
     id="metadata8"><rdf:RDF><cc:Work
         rdf:about=""><dc:format>image/svg+xml</dc:format><dc:type
           rdf:resource="http://purl.org/dc/dcmitype/StillImage" /><dc:title></dc:title></cc:Work></rdf:RDF></metadata><defs
     id="defs6"><clipPath
       clipPathUnits="userSpaceOnUse"
       id="clipPath18"><path
         d="M 0,766.193 H 600.671 V 0 H 0 Z"
         id="path16"
         inkscape:connector-curvature="0" /></clipPath><clipPath
       clipPathUnits="userSpaceOnUse"
       id="clipPath26"><path
         d="M -11.5762,144.09 H 600.671 V 75.1855 H -11.5762 Z"
         id="path24"
         inkscape:connector-curvature="0" /></clipPath><clipPath
       clipPathUnits="userSpaceOnUse"
       id="clipPath30"><path
         d="m -11.576,109.638 c 0,19.024 137.057,34.452 306.124,34.452 169.066,0 306.123,-15.428 306.123,-34.452 0,-19.029 -137.057,-34.452 -306.123,-34.452 -169.067,0 -306.124,15.423 -306.124,34.452"
         id="path28"
         inkscape:connector-curvature="0" /></clipPath><clipPath
       clipPathUnits="userSpaceOnUse"
       id="clipPath34"><path
         d="M -32768,32767 H 32767 V -32768 H -32768 Z"
         id="path32"
         inkscape:connector-curvature="0" /></clipPath><radialGradient
       fx="0"
       fy="0"
       cx="0"
       cy="0"
       r="1"
       gradientUnits="userSpaceOnUse"
       gradientTransform="matrix(306.08154,0,0,-34.457058,294.54687,109.6377)"
       spreadMethod="pad"
       id="radialGradient40"><stop
         style="stop-opacity:1;stop-color:#ffffff"
         offset="0"
         id="stop36" /><stop
         style="stop-opacity:0;stop-color:#ffffff"
         offset="1"
         id="stop38" /></radialGradient><mask
       maskUnits="userSpaceOnUse"
       x="0"
       y="0"
       width="1"
       height="1"
       id="mask42"><g
         id="g52"><g
           clip-path="url(#clipPath34)"
           id="g50"><g
             id="g48"><g
               id="g46"><path
                 d="M -32768,32767 H 32767 V -32768 H -32768 Z"
                 style="fill:url(#radialGradient40);stroke:none"
                 id="path44"
                 inkscape:connector-curvature="0" /></g></g></g></g></mask><radialGradient
       fx="0"
       fy="0"
       cx="0"
       cy="0"
       r="1"
       gradientUnits="userSpaceOnUse"
       gradientTransform="matrix(306.08154,0,0,-34.457058,294.54687,109.6377)"
       spreadMethod="pad"
       id="radialGradient58"><stop
         style="stop-opacity:1;stop-color:#000000"
         offset="0"
         id="stop54" /><stop
         style="stop-opacity:1;stop-color:#ffffff"
         offset="1"
         id="stop56" /></radialGradient></defs><sodipodi:namedview
     pagecolor="#ffffff"
     bordercolor="#666666"
     borderopacity="1"
     objecttolerance="10"
     gridtolerance="10"
     guidetolerance="10"
     inkscape:pageopacity="0"
     inkscape:pageshadow="2"
     inkscape:window-width="1920"
     inkscape:window-height="1080"
     id="namedview4"
     showgrid="false"
     inkscape:zoom="0.46202455"
     inkscape:cx="215.8016"
     inkscape:cy="-201.62915"
     inkscape:window-x="0"
     inkscape:window-y="0"
     inkscape:window-maximized="0"
     inkscape:current-layer="g14"
     inkscape:object-nodes="false" /><g
     id="g10"
     inkscape:groupmode="layer"
     inkscape:label="Nymbl Flame Only Standard Green"
     transform="matrix(1.3333333,0,0,-1.3333333,0,400)"><g
       id="g12"><g
         id="g14"
         clip-path="url(#clipPath18)"><path
           style="opacity:1;fill:#ffffff;fill-opacity:1;stroke:none;stroke-width:0.67016178;stroke-miterlimit:4.0999999;stroke-dasharray:none;stroke-opacity:1"
           d="m 149.15607,29.176079 c 0,0 -102.906207,66.108665 -86.93123,137.575891 14.32283,64.07601 86.88876,106.34345 86.93122,106.34345 13.06992,-5.11097 84.00687,-63.44514 87.94227,-108.90757 6.76565,-78.157798 -84.8695,-135.079507 -87.94226,-135.011771 z"
           id="path42"
           inkscape:connector-curvature="0"
           sodipodi:nodetypes="cscsc" /><g
           id="g78"
           transform="translate(457.22607,381.42279)"
           style="fill:#000000;fill-opacity:1"><path
             d="m -231.16147,-236.23467 -0.0346,-0.43043 c -0.10004,-1.38021 -0.25685,-2.82779 -0.45663,-4.3081 l -0.11516,-0.81269 c -0.20866,-1.42605 -0.45008,-2.84744 -0.74108,-4.26038 l -0.10668,-0.49547 c -0.29335,-1.38442 -0.62601,-2.76275 -1.0368,-4.29968 l -0.0608,-0.25171 c -0.40002,-1.4691 -0.84543,-2.93025 -1.33014,-4.37735 l -0.37802,-1.09107 c -0.37431,-1.07375 -0.75889,-2.14329 -1.16967,-3.19973 -0.14784,-0.3785 -0.5998,-1.48921 -0.5998,-1.48921 -0.37431,-0.91936 -0.7631,-1.83824 -1.16499,-2.74965 -0.22598,-0.50857 -0.45477,-1.01901 -0.68731,-1.52149 -0.32375,-0.7018 -0.66061,-1.3905 -1.08637,-2.2626 -0.41311,-0.84075 -0.837,-1.67964 -1.274,-2.51711 -0.35839,-0.68028 -0.72145,-1.35823 -1.0934,-2.03615 -0.45382,-0.82391 -0.91513,-1.64315 -1.38628,-2.4563 -0.38506,-0.66062 -0.77619,-1.31704 -1.17154,-1.97346 -0.49126,-0.81267 -0.99795,-1.62396 -1.51307,-2.43009 l -0.12589,-0.20446 c -0.35464,-0.55628 -0.71068,-1.10837 -1.07373,-1.66045 -0.5432,-0.82157 -1.09575,-1.63472 -1.65392,-2.44086 0,0 -0.91094,-1.31983 -1.21504,-1.75027 -0.58297,-0.81222 -1.17388,-1.61461 -1.76527,-2.40764 0,0 -0.91281,-1.23704 -1.24732,-1.67401 -0.57828,-0.76029 -1.16967,-1.50842 -1.88691,-2.40624 0,0 -0.93899,-1.19306 -1.2169,-1.52992 -0.69571,-0.86275 -1.40876,-1.7063 -2.11945,-2.54098 l -1.06298,-1.26697 c -1.07375,-1.24125 -2.15171,-2.46707 -3.23856,-3.65825 l -1.09575,-1.20382 -1.31001,0.9259 c -3.29517,2.33418 -6.59737,4.74275 -9.8116,7.1504 -3.70597,2.77397 -7.33614,5.5821 -10.79226,8.34904 -3.90574,3.1277 -7.67674,6.26846 -11.21988,9.34235 -3.44256,2.99246 -6.72042,5.98821 -9.82424,8.93108 l 0,0.0173 c -0.41312,0.39114 -0.85618,0.7907 -1.26042,1.17995 -1.52619,1.47144 -3.02569,2.96018 -4.50368,4.46203 l -1.20428,1.23283 c -1.21739,1.2567 -2.4212,2.52367 -3.60397,3.80609 l -0.81081,0.8735 c -1.40594,1.53694 -2.77115,3.08885 -4.09054,4.64496 l -0.88006,1.06254 c -1.05223,1.25667 -2.06937,2.52179 -3.0603,3.79111 l -0.34154,0.43417 c -0.30881,0.39161 -0.61291,0.78274 -0.90626,1.17388 l -0.69992,0.93105 c -0.71302,0.96661 -1.40827,1.93368 -2.07125,2.88579 l -0.38036,0.53477 c -0.76965,1.11728 -1.49998,2.23265 -2.19991,3.34337 l -0.56519,0.91701 c -0.54552,0.88427 -1.06906,1.76806 -1.57343,2.65233 l -0.49593,0.87305 c -0.62366,1.1224 -1.21692,2.25042 -1.76901,3.38078 l -0.27369,0.58717 c -0.45664,0.95726 -0.88708,1.91498 -1.27587,2.85164 -0.13708,0.31535 -0.26949,0.63443 -0.40236,0.95539 -0.43044,1.08871 -0.83467,2.17089 -1.19119,3.25821 l -0.12814,0.41828 c -0.34997,1.08965 -0.65408,2.17368 -0.94321,3.35832 l -0.0626,0.24844 c -0.29149,1.25014 -0.52214,2.48344 -0.68729,3.67274 l -0.0239,0.15534 c -0.15626,1.15936 -0.25405,2.344 -0.29335,3.48278 l -0.0133,0.25547 c -0.0215,0.71956 -0.0133,1.42136 0.007,2.10491 0.007,0.10243 0.007,0.19043 0.007,0.30131 0.33032,9.12993 -4.19066,7.30431 -5.85534,2.7997 -0.16748,-0.53664 -0.33499,-1.07281 -0.49592,-1.61178 -0.16096,-0.53711 -0.313,-1.07469 -0.45665,-1.57904 -0.2737,-1.07049 -0.54739,-2.20179 -0.79958,-3.38361 -0.2564,-1.17668 -0.49967,-2.40671 -0.72192,-3.67415 -0.22364,-1.26933 -0.42576,-2.57467 -0.60401,-3.90901 -0.17778,-1.33249 -0.33265,-2.69445 -0.45195,-4.02552 -0.0263,-0.37055 -0.0458,-0.73783 -0.0632,-1.11725 -0.0239,-0.36168 -0.037,-0.72614 -0.0477,-1.11166 -0.0153,-0.36633 -0.022,-0.73362 -0.0281,-1.10089 -0.01,-0.36867 -0.01,-0.73689 -0.01,-1.1065 0,-7.89242 1.41295,-16.04404 4.20376,-24.23215 2.51243,-7.35904 6.18565,-14.9015 10.9284,-22.42431 4.15605,-6.59457 9.20291,-13.27615 14.99788,-19.87305 4.55795,-5.17927 9.64178,-10.36088 15.10176,-15.41896 l 0,-0.0153 c 0.40846,-0.38271 0.8066,-0.76964 1.22348,-1.14533 2.28038,-2.08622 4.65572,-4.17102 7.06008,-6.19874 2.13627,-1.80644 4.33197,-3.59743 6.5183,-5.32338 l 3.66057,-2.8451 -2.70846,-2.13674 c -0.57408,-0.45428 -1.1561,-0.9128 -1.69556,-1.32825 -2.27148,-1.74515 -4.5729,-3.44959 -6.83784,-5.06184 -1.93462,-1.37787 -3.49495,-2.44132 -4.57339,-3.16043 -0.22597,-0.14784 -0.3972,-0.26296 -0.58201,-0.38272 -1.11118,-0.51278 -2.60227,-0.68214 -3.78878,-0.21709 l -2.61068,1.73858 -2.63831,1.83638 -1.48686,1.07001 -1.90375,1.38862 c 0,0 -1.21973,0.90439 -1.83263,1.36476 0,0 -2.21488,1.6918 -2.83199,2.1695 l -3.49963,2.76461 c -0.9128,0.73502 -1.85415,1.50419 -2.80627,2.29581 l -0.626,0.52588 c -0.75607,0.63023 -1.52757,1.2801 -2.30188,1.94305 l -0.92123,0.79537 c -0.76497,0.66296 -1.54537,1.34559 -2.32998,2.04083 l -0.74764,0.66765 c -1.00872,0.90391 -2.0282,1.82981 -3.05189,2.78192 l -0.76074,0.71303 c -0.68684,0.6391 -1.37366,1.29973 -2.0647,1.95801 -1.5519,1.48923 -3.11037,3.02335 -4.66462,4.60614 l -0.73922,0.77385 c -1.35587,1.39986 -2.71456,2.84322 -4.06434,4.32121 l -1.11306,1.22112 c -1.64736,1.82795 -3.13002,3.54502 -4.54484,5.24244 l -0.77573,0.95678 c -1.2913,1.57343 -2.55407,3.18196 -3.80187,4.82089 0,0 -0.98673,1.29973 -1.28662,1.70021 l -0.87585,1.20616 c -0.71303,0.98439 -1.41296,1.98001 -2.09979,2.98639 l -0.76962,1.11912 c -0.90815,1.35635 -1.79521,2.7169 -2.6514,4.10786 l -0.38693,0.64333 c -0.72145,1.1851 -1.42605,2.38236 -2.11287,3.58852 -0.46507,0.82391 -0.92591,1.65016 -1.38675,2.50214 l -0.17827,0.33032 c -0.56518,1.07374 -1.11257,2.15591 -1.64314,3.24324 l -0.36914,0.77103 c -0.4936,1.02837 -0.9699,2.05862 -1.44336,3.14125 l -0.10669,0.23441 c -0.4889,1.1196 -0.94741,2.24809 -1.39751,3.39109 l -0.29569,0.78695 c -0.39956,1.03866 -0.77806,2.08667 -1.18697,3.27317 l -0.0716,0.20867 c -0.37804,1.1299 -0.72801,2.27336 -1.05645,3.41261 l -0.24983,0.88006 c -0.29102,1.05457 -0.56519,2.11896 -0.84778,3.31062 l -0.0632,0.24749 c -0.26714,1.1692 -0.50623,2.34964 -0.71724,3.52536 -0.0739,0.38272 -0.14129,0.76965 -0.20165,1.15189 -0.0781,0.47208 -0.15673,0.94369 -0.22177,1.40875 -0.0654,0.43698 -0.12217,0.87163 -0.17638,1.30627 -0.0626,0.4894 -0.12404,0.97831 -0.17592,1.46537 -0.0458,0.42763 -0.0889,0.85384 -0.12629,1.27352 -0.0477,0.49547 -0.0847,0.99328 -0.11926,1.49763 l -0.0804,1.29506 c -0.0215,0.50015 -0.0434,0.99889 -0.0584,1.48922 -0.0197,0.68448 -0.0394,1.36802 -0.0394,2.05533 0,1.55472 0.0566,3.17634 0.17171,4.81948 l 0.0346,0.42576 c 0.10244,1.383 0.25452,2.83246 0.4543,4.30902 l 0.1198,0.81223 c 0.20866,1.42886 0.44774,2.84976 0.73689,4.25991 l 0.11091,0.49594 c 0.29569,1.38674 0.62133,2.76227 1.03024,4.30108 l 0.0651,0.25125 c 0.4019,1.47049 0.84778,2.93351 1.32594,4.38108 l 0.38691,1.0878 c 0.3715,1.07374 0.75421,2.14282 1.16733,3.20347 0.1455,0.37522 0.59793,1.48688 0.59793,1.48688 0.37571,0.92169 0.76262,1.83777 1.16452,2.75058 0.22412,0.50856 0.45476,1.01855 0.68729,1.52384 0.32565,0.69758 0.66063,1.38769 1.08873,2.25932 0.415,0.84121 0.83468,1.67823 1.26931,2.51477 0.35839,0.68262 0.72379,1.35822 1.09341,2.0385 0.45617,0.82391 0.91702,1.64219 1.39096,2.45442 0.38459,0.65968 0.76963,1.31936 1.16733,1.97204 0.49313,0.81831 0.99749,1.6263 1.51495,2.4343 l 0.12589,0.20259 c 0.35651,0.55677 0.70882,1.11305 1.07376,1.66373 0.54365,0.81877 1.09573,1.63005 1.65623,2.43898 0,0 0.90859,1.32032 1.21318,1.74514 0.57781,0.81737 1.1734,1.61836 1.76479,2.41278 0,0 0.91467,1.23658 1.24358,1.67169 0.58437,0.76074 1.17761,1.51027 1.89252,2.40809 0,0 0.93291,1.18885 1.21317,1.52806 0.69759,0.86274 1.41062,1.70489 2.12365,2.54613 l 1.06298,1.2651 c 1.06908,1.24218 2.14938,2.46378 3.23622,3.6573 l 1.09574,1.20195 1.30815,-0.92544 c 3.29705,-2.33652 6.59877,-4.73994 9.81395,-7.15086 3.70363,-2.77351 7.33332,-5.58257 10.79131,-8.34765 3.90621,-3.12533 7.67955,-6.27173 11.21567,-9.34467 3.44724,-2.99247 6.72931,-5.984 9.82892,-8.93155 l 0,-0.0141 c 0.41077,-0.39347 0.85433,-0.79116 1.26042,-1.18136 1.52618,-1.4691 3.02569,-2.95924 4.50367,-4.4625 l 1.2043,-1.23002 c 1.22158,-1.25855 2.42353,-2.5246 3.6063,-3.80654 l 0.81034,-0.87445 c 1.40406,-1.54115 2.76928,-3.09073 4.09055,-4.64356 l 0.88286,-1.06392 c 1.05175,-1.25857 2.06468,-2.5218 3.05563,-3.78925 l 0.34155,-0.43746 c 0.30644,-0.39113 0.61476,-0.77992 0.90625,-1.16919 l 0.69993,-0.93666 c 0.71068,-0.96333 1.41059,-1.92574 2.07357,-2.88346 l 0.37803,-0.53711 c 0.76963,-1.11351 1.49998,-2.23171 2.20178,-3.34056 l 0.56519,-0.91607 c 0.5413,-0.88381 1.06953,-1.77041 1.57389,-2.65374 l 0.49313,-0.87069 c 0.626,-1.12615 1.21739,-2.25511 1.77366,-3.38313 l 0.26997,-0.58906 c 0.45617,-0.95538 0.88427,-1.90842 1.27774,-2.84928 0.13475,-0.3177 0.26715,-0.63491 0.39581,-0.95633 0.43418,-1.08732 0.84124,-2.1737 1.19493,-3.25587 l 0.12867,-0.4178 c 0.34995,-1.09107 0.65408,-2.17978 0.94509,-3.36257 l 0.0614,-0.24795 c 0.291,-1.24967 0.52354,-2.4839 0.68869,-3.669 l 0.022,-0.15627 c 0.1544,-1.16264 0.25639,-2.34495 0.29755,-3.48888 l 0.01,-0.25171 c 0.0215,-0.71723 0.0173,-1.42136 -0.007,-2.10398 -0.003,-0.10019 -0.003,-0.19135 -0.007,-0.30224 -0.33031,-9.12899 4.19067,-7.30337 5.85347,-2.79503 0.17169,0.53056 0.33684,1.06673 0.49779,1.60618 0.16096,0.53899 0.31722,1.07376 0.45664,1.58278 0.27793,1.06908 0.5474,2.19944 0.80146,3.37941 0.25453,1.18041 0.4978,2.40622 0.71956,3.67787 0.22411,1.26745 0.42389,2.57375 0.60028,3.90576 0.18014,1.33481 0.33875,2.69537 0.45851,4.02784 0.0239,0.36728 0.0453,0.73689 0.0626,1.11446 0.0197,0.36586 0.0351,0.72613 0.0477,1.11304 0.0135,0.36961 0.022,0.73502 0.0262,1.10464 0.007,0.3626 0.01,0.73455 0.01,1.10369 0,7.89242 -1.41295,16.04544 -4.20611,24.23309 -2.5101,7.3567 -6.18565,14.90105 -10.92605,22.4215 -4.15606,6.59129 -9.20105,13.2785 -14.99791,19.87258 -4.55559,5.18395 -9.64175,10.36275 -15.10174,15.42272 l 0,0.0106 c -0.41312,0.38131 -0.80847,0.76916 -1.2216,1.15095 -2.28225,2.08199 -4.65994,4.16867 -7.06195,6.19547 -2.14097,1.80596 -4.33198,3.596 -6.5141,5.32103 l -3.66478,2.84742 2.70846,2.13535 c 0.57782,0.4585 1.15189,0.91374 1.69976,1.3292 2.26915,1.74561 4.56684,3.4491 6.83364,5.06417 1.9365,1.37835 3.49495,2.43992 4.57338,3.15904 1.29506,0.85151 3.51649,1.1645 4.95329,0.21427 l 2.0282,-1.35165 2.63642,-1.84013 1.48875,-1.06813 1.90187,-1.38676 c 0,0 1.21925,-0.90437 1.8345,-1.36849 0,0 2.21908,-1.6862 2.83433,-2.16949 l 3.49729,-2.76323 c 0.91515,-0.73781 1.85602,-1.50418 2.80392,-2.29533 l 0.626,-0.52167 c 0.76075,-0.63584 1.52993,-1.28337 2.30189,-1.9482 l 0.92123,-0.79397 c 0.7673,-0.6639 1.54537,-1.34838 2.3281,-2.04083 l 0.75655,-0.66951 c 1.0059,-0.8997 2.02539,-1.82889 3.04719,-2.77771 l 0.76076,-0.71491 c 0.68682,-0.64051 1.37599,-1.29551 2.06469,-1.96081 1.55191,-1.48922 3.10849,-3.02008 4.66274,-4.60708 l 0.7411,-0.76916 c 1.36056,-1.3994 2.71222,-2.84416 4.06201,-4.31887 l 1.11726,-1.22394 c 1.6436,-1.83216 3.12768,-3.54267 4.54298,-5.24243 l 0.77572,-0.95866 c 1.29131,-1.57343 2.55641,-3.18382 3.80188,-4.81901 0,0 0.98625,-1.29833 1.28427,-1.70162 l 0.88054,-1.20195 c 0.71066,-0.98906 1.4106,-1.98234 2.0993,-2.99059 l 0.76731,-1.11961 c 0.90858,-1.35073 1.79566,-2.71876 2.65185,-4.10458 l 0.38693,-0.64471 c 0.72191,-1.18323 1.42605,-2.37864 2.11288,-3.59087 0.46506,-0.82251 0.93011,-1.64595 1.3844,-2.50262 l 0.18013,-0.32844 c 0.56752,-1.07562 1.11306,-2.15919 1.64127,-3.24605 l 0.37384,-0.76495 c 0.49125,-1.03024 0.96707,-2.06516 1.44336,-3.14641 l 0.10203,-0.23392 c 0.49172,-1.11774 0.94791,-2.24715 1.39799,-3.39063 l 0.2999,-0.78179 c 0.39768,-1.04381 0.77572,-2.08668 1.18229,-3.28021 l 0.0716,-0.20212 c 0.37804,-1.13598 0.73034,-2.27804 1.05878,-3.41823 l 0.24984,-0.88006 c 0.2957,-1.05642 0.56939,-2.11848 0.85011,-3.30498 l 0.0584,-0.2489 c 0.27371,-1.1706 0.50859,-2.35151 0.72146,-3.52631 0.0698,-0.38365 0.13895,-0.76964 0.19977,-1.15563 0.0786,-0.47301 0.15674,-0.94228 0.22179,-1.40968 0.0698,-0.43232 0.12403,-0.86929 0.17825,-1.30159 0.0655,-0.49266 0.12403,-0.98112 0.17405,-1.46771 0.0458,-0.42341 0.089,-0.84964 0.12588,-1.27306 0.0458,-0.4936 0.0853,-0.98999 0.12404,-1.49669 l 0.0762,-1.29551 c 0.0217,-0.49735 0.0454,-0.99891 0.0608,-1.49203 0.0197,-0.68355 0.037,-1.3629 0.037,-2.05394 0,-1.55424 -0.0589,-3.1768 -0.17171,-4.81666 m 22.86598,8.40613 c -0.60214,15.54716 -5.17318,31.49809 -13.58493,47.40646 -7.34221,13.88249 -17.62308,27.80943 -30.55582,41.38595 -9.40268,9.86916 -19.95352,19.31956 -31.36476,28.09298 -8.881,6.83363 -15.19298,10.83435 -15.88215,11.26806 l -7.54433,4.74041 0,0.003 -7.6379,-4.8017 c -0.27604,-0.17593 -1.00638,-0.64426 -2.1213,-1.3891 -1.33014,-0.88755 -3.20814,-2.16715 -5.52081,-3.8131 -2.66917,-1.90234 -5.4015,-3.92118 -8.11185,-6.01019 -3.38829,-2.60367 -6.75129,-5.30794 -10.04413,-8.07864 -1.5973,-1.24592 -5.92738,-4.72216 -11.63956,-10.05769 -8.18342,-7.63651 -15.73664,-15.81104 -22.45286,-24.28737 -9.21554,-11.62926 -16.53621,-23.48495 -21.76134,-35.2396 -6.44718,-14.49635 -9.7157,-28.90613 -9.7157,-42.81996 0,-1.19588 0.0234,-2.38239 0.0716,-3.58901 0.60214,-15.54623 5.17927,-31.50044 13.5868,-47.40645 7.34222,-13.88438 17.62309,-27.80617 30.55629,-41.3869 9.40222,-9.86541 19.95493,-19.32051 31.36662,-28.09531 8.8829,-6.83177 15.19066,-10.83108 15.88169,-11.2676 l 7.54246,-4.73852 7.6379,4.80356 c 0.27604,0.17591 1.00451,0.64331 2.11896,1.38675 1.33248,0.88708 3.21049,2.16482 5.52315,3.81263 2.66918,1.89953 5.39916,3.92306 8.11185,6.00741 3.39062,2.60833 6.75129,5.31026 10.04414,8.08143 1.59728,1.24778 5.92972,4.72309 11.63954,10.05489 8.18531,7.64445 15.73852,15.81478 22.45285,24.28736 9.21555,11.63301 16.53625,23.4873 21.76184,35.24196 6.44859,14.49773 9.71568,28.90425 9.71568,42.8251 0,1.19166 -0.0244,2.38003 -0.0739,3.58385"
             style="fill:#000000;fill-opacity:1;fill-rule:nonzero;stroke:none;stroke-width:0.46786532"
             id="path80"
             inkscape:connector-curvature="0" /></g></g></g></g></svg>