<?xml version="1.0" encoding="UTF-8" standalone="no"?>
<!-- Created with Inkscape (http://www.inkscape.org/) -->

<svg
   xmlns:dc="http://purl.org/dc/elements/1.1/"
   xmlns:cc="http://creativecommons.org/ns#"
   xmlns:rdf="http://www.w3.org/1999/02/22-rdf-syntax-ns#"
   xmlns:svg="http://www.w3.org/2000/svg"
   xmlns="http://www.w3.org/2000/svg"
   xmlns:sodipodi="http://sodipodi.sourceforge.net/DTD/sodipodi-0.dtd"
   xmlns:inkscape="http://www.inkscape.org/namespaces/inkscape"
   version="1.1"
   id="svg2"
   xml:space="preserve"
   width="484"
   height="173.33333"
   viewBox="0 0 484 173.33333"
   sodipodi:docname="nymblscience-logo.svg"
   inkscape:version="0.92.4 (5da689c313, 2019-01-14)"><metadata
     id="metadata8"><rdf:RDF><cc:Work
         rdf:about=""><dc:format>image/svg+xml</dc:format><dc:type
           rdf:resource="http://purl.org/dc/dcmitype/StillImage" /><dc:title></dc:title></cc:Work></rdf:RDF></metadata><defs
     id="defs6" /><sodipodi:namedview
     pagecolor="#ffffff"
     bordercolor="#666666"
     borderopacity="1"
     objecttolerance="10"
     gridtolerance="10"
     guidetolerance="10"
     inkscape:pageopacity="0"
     inkscape:pageshadow="2"
     inkscape:window-width="1920"
     inkscape:window-height="1080"
     id="namedview4"
     showgrid="false"
     inkscape:zoom="0.91942149"
     inkscape:cx="247.4382"
     inkscape:cy="79.053181"
     inkscape:window-x="0"
     inkscape:window-y="0"
     inkscape:window-maximized="0"
     inkscape:current-layer="g10" /><g
     id="g10"
     inkscape:groupmode="layer"
     inkscape:label="ink_ext_XXXXXX"
     transform="matrix(1.3333333,0,0,-1.3333333,0,173.33333)"><g
       id="g12"
       transform="scale(0.1)"><path
         d="m 1591.68,419.691 c -52.85,0 -99.73,28.981 -161.09,152.61 l -122.78,248.051 c -23.86,48.597 -42.61,75.898 -63.94,96.367 V 419.691 h -32.39 c -24.72,0 -43.47,18.75 -43.47,52.848 v 527.691 h 37.5 c 68.2,0 114.26,-46.871 148.32,-115.929 l 122.77,-248.91 c 22.19,-44.34 40.08,-88.672 65.67,-120.231 v 484.211 h 32.38 c 22.15,0 40.9,-17.031 40.9,-40.891 V 419.691 h -23.87"
         style="fill:#626262;fill-opacity:1;fill-rule:nonzero;stroke:none"
         id="path14"
         inkscape:connector-curvature="0" /><path
         d="m 1957.15,463.16 c -72.46,-146.64 -115.08,-193.512 -179.88,-193.512 -34.97,0 -58.83,19.614 -58.83,39.223 v 28.981 h 36.68 c 35.78,0 58.83,8.519 111.68,108.277 -71.6,109.961 -147.5,280.473 -175.63,429.652 h 44.34 c 31.52,0 42.62,-24.73 47.73,-46.011 20.47,-91.25 66.49,-216.571 123.6,-310.321 48.59,83.52 114.25,256.602 129.61,356.332 h 30.66 c 20.47,0 35.82,-7.66 35.82,-34.961 0,-9.371 -5.98,-34.961 -9.38,-47.73 -34.96,-135.551 -111.67,-279.61 -136.4,-329.93"
         style="fill:#626262;fill-opacity:1;fill-rule:nonzero;stroke:none"
         id="path16"
         inkscape:connector-curvature="0" /><path
         d="m 2775.63,419.691 c -29.85,0 -51.18,20.469 -51.18,57.11 v 201.211 c 0,95.468 -35.78,132.968 -98,132.968 -75.04,0 -106.57,-38.359 -106.57,-130.429 v -260.86 h -26.44 c -37.5,0 -51.99,20.469 -51.99,57.11 v 201.211 c 0,82.687 -36.68,132.968 -102.31,132.968 -67.34,0 -102.3,-40.039 -102.3,-132.968 V 419.691 h -24.73 c -32.38,0 -53.71,18.75 -53.71,57.11 v 211.437 c 0,104.852 66.52,196.063 185.86,196.063 67.34,0 113.4,-29.852 141.52,-82.699 29.85,49.449 83.52,82.699 143.2,82.699 113.4,0 173.91,-68.211 173.91,-203.75 v -260.86 h -27.26"
         style="fill:#626262;fill-opacity:1;fill-rule:nonzero;stroke:none"
         id="path18"
         inkscape:connector-curvature="0" /><path
         d="m 3113.28,811.84 c -73.32,0 -125.31,-66.488 -125.31,-165.391 0,-114.219 53.71,-162.82 132.97,-162.82 75.9,0 125.35,64.812 125.35,162.82 0,123.629 -58.83,165.391 -133.01,165.391 z m -2.54,-400.668 c -127.03,0 -202.03,92.93 -202.03,225.898 v 396.41 h 36.64 c 20.43,0 42.62,-15.32 42.62,-52.859 V 793.949 c 25.58,56.25 82.69,90.352 145.78,90.352 104.84,0 191.8,-80.981 191.8,-229.301 0,-138.98 -85.24,-243.828 -214.81,-243.828"
         style="fill:#626262;fill-opacity:1;fill-rule:nonzero;stroke:none"
         id="path20"
         inkscape:connector-curvature="0" /><path
         d="m 3561.37,416.289 c -89.53,0 -138.09,43.481 -138.09,135.551 v 481.64 h 23.83 c 31.56,0 54.57,-19.57 54.57,-59.652 V 561.211 c 0,-57.109 28.98,-73.32 71.64,-73.32 h 50.27 v -25.59 c 0,-31.52 -20.46,-46.012 -62.22,-46.012"
         style="fill:#626262;fill-opacity:1;fill-rule:nonzero;stroke:none"
         id="path22"
         inkscape:connector-curvature="0" /><path
         d="m 830.738,628.828 -0.148,-2.027 c -0.508,-6.531 -1.211,-13.36 -2.192,-20.352 l -0.546,-3.828 c -0.973,-6.762 -2.114,-13.48 -3.473,-20.16 l -0.508,-2.34 c -1.41,-6.531 -2.973,-13.051 -4.922,-20.32 l -0.277,-1.172 c -1.871,-6.949 -3.981,-13.859 -6.293,-20.699 l -1.789,-5.16 c -1.758,-5.071 -3.559,-10.11 -5.508,-15.11 -0.703,-1.762 -2.852,-7.039 -2.852,-7.039 -1.761,-4.332 -3.601,-8.672 -5.511,-12.961 -1.059,-2.43 -2.149,-4.851 -3.239,-7.191 -1.531,-3.321 -3.128,-6.598 -5.121,-10.699 -1.949,-3.989 -3.949,-7.93 -6.019,-11.918 -1.711,-3.204 -3.391,-6.403 -5.149,-9.614 -2.152,-3.898 -4.339,-7.769 -6.562,-11.597 -1.84,-3.121 -3.68,-6.211 -5.547,-9.34 -2.312,-3.821 -4.73,-7.653 -7.152,-11.481 l -0.59,-0.98 c -1.68,-2.61 -3.36,-5.231 -5.07,-7.809 -2.579,-3.91 -5.2,-7.73 -7.821,-11.562 0,0 -4.289,-6.207 -5.738,-8.239 -2.77,-3.871 -5.551,-7.66 -8.359,-11.41 0,0 -4.301,-5.82 -5.903,-7.89 -2.687,-3.59 -5.5,-7.149 -8.898,-11.371 0,0 -4.422,-5.661 -5.75,-7.219 -3.281,-4.11 -6.641,-8.09 -10,-12.039 l -5.031,-5.969 c -5.079,-5.863 -10.161,-11.641 -15.321,-17.312 l -5.148,-5.661 -6.211,4.371 c -15.551,11.02 -31.18,22.43 -46.371,33.79 -17.5,13.089 -34.649,26.371 -50.981,39.46 -18.468,14.758 -36.289,29.61 -53.008,44.141 -16.281,14.141 -31.75,28.277 -46.441,42.18 v 0.078 c -1.949,1.883 -4.019,3.75 -5.937,5.59 -7.223,6.953 -14.301,13.98 -21.293,21.09 l -5.7,5.82 c -5.738,5.941 -11.449,11.922 -17.031,17.973 l -3.828,4.136 c -6.641,7.274 -13.09,14.614 -19.34,21.961 l -4.14,5.031 c -4.961,5.942 -9.758,11.918 -14.45,17.891 l -1.64,2.078 c -1.45,1.832 -2.891,3.672 -4.258,5.539 l -3.32,4.383 c -3.364,4.57 -6.641,9.141 -9.762,13.629 l -1.801,2.539 c -3.668,5.27 -7.109,10.551 -10.43,15.82 l -2.66,4.301 c -2.57,4.18 -5.039,8.36 -7.418,12.539 l -2.34,4.141 c -2.972,5.308 -5.742,10.621 -8.363,15.969 l -1.289,2.781 c -2.187,4.531 -4.219,9.058 -6.059,13.469 -0.621,1.492 -1.25,3.011 -1.871,4.492 -2.031,5.16 -3.949,10.277 -5.629,15.429 l -0.621,1.961 c -1.64,5.149 -3.089,10.27 -4.449,15.86 l -0.32,1.211 c -1.36,5.898 -2.461,11.718 -3.238,17.34 l -0.122,0.738 c -0.742,5.469 -1.171,11.058 -1.359,16.449 l -0.082,1.211 c -0.078,3.398 -0.039,6.719 0.039,9.922 0.043,0.508 0.043,0.898 0.043,1.449 1.559,43.117 -19.812,34.488 -27.699,13.199 -0.781,-2.5 -1.563,-5.039 -2.344,-7.582 -0.738,-2.539 -1.449,-5.078 -2.148,-7.457 -1.289,-5.082 -2.578,-10.429 -3.75,-16.011 -1.211,-5.551 -2.379,-11.372 -3.442,-17.348 -1.047,-6.012 -1.988,-12.192 -2.847,-18.473 -0.821,-6.289 -1.563,-12.738 -2.153,-19.027 -0.109,-1.762 -0.187,-3.473 -0.269,-5.274 -0.117,-1.718 -0.199,-3.437 -0.239,-5.277 -0.07,-1.711 -0.109,-3.43 -0.109,-5.191 -0.043,-1.719 -0.043,-3.481 -0.043,-5.231 0,-37.269 6.684,-75.789 19.844,-114.5 11.879,-34.758 29.219,-70.429 51.637,-105.969 19.652,-31.14 43.48,-62.742 70.863,-93.91 21.558,-24.449 45.59,-48.949 71.367,-72.851 v -0.078 c 1.949,-1.801 3.832,-3.629 5.781,-5.391 10.782,-9.879 21.989,-19.73 33.36,-29.301 10.121,-8.551 20.468,-16.988 30.82,-25.148 l 17.301,-13.442 -12.813,-10.121 c -2.687,-2.148 -5.468,-4.289 -8.008,-6.25 -10.742,-8.277 -21.601,-16.328 -32.3,-23.937 -9.141,-6.492 -16.52,-11.531 -21.641,-14.93 -1.059,-0.699 -1.879,-1.25 -2.738,-1.793 -5.231,-2.418 -12.301,-3.238 -17.891,-1.058 l -12.34,8.25 -12.461,8.671 -7.031,5.039 -8.988,6.559 c 0,0 -5.781,4.301 -8.668,6.441 0,0 -10.473,8.008 -13.402,10.282 l -16.52,13.039 c -4.301,3.48 -8.75,7.109 -13.238,10.859 l -2.973,2.5 c -3.59,2.969 -7.23,6.02 -10.898,9.18 l -4.34,3.75 c -3.629,3.129 -7.301,6.371 -11.012,9.648 l -3.519,3.172 c -4.758,4.25 -9.61,8.629 -14.45,13.121 l -3.59,3.36 c -3.25,3.05 -6.492,6.129 -9.73,9.257 -7.34,7.032 -14.73,14.301 -22.07,21.762 l -3.481,3.672 c -6.398,6.598 -12.808,13.438 -19.219,20.43 L 260,327.5 c -7.809,8.672 -14.801,16.762 -21.48,24.801 l -3.68,4.5 c -6.09,7.461 -12.07,15.039 -17.961,22.769 0,0 -4.649,6.168 -6.098,8.051 l -4.14,5.699 c -3.36,4.649 -6.641,9.379 -9.879,14.102 l -3.672,5.308 c -4.262,6.411 -8.481,12.821 -12.5,19.418 l -1.84,3.012 c -3.398,5.621 -6.762,11.289 -10,16.988 -2.191,3.872 -4.371,7.774 -6.52,11.801 l -0.859,1.563 c -2.66,5.078 -5.281,10.187 -7.781,15.308 l -1.711,3.668 c -2.348,4.852 -4.609,9.731 -6.84,14.852 l -0.508,1.09 c -2.301,5.269 -4.492,10.621 -6.601,16.019 l -1.41,3.711 c -1.872,4.922 -3.668,9.879 -5.579,15.461 l -0.351,1.02 c -1.801,5.308 -3.442,10.738 -5,16.089 l -1.18,4.18 c -1.359,5 -2.648,10 -4.019,15.629 l -0.27,1.172 c -1.293,5.551 -2.391,11.129 -3.402,16.68 -0.348,1.8 -0.668,3.629 -0.938,5.429 -0.39,2.231 -0.742,4.45 -1.051,6.68 -0.32,2.031 -0.589,4.102 -0.859,6.172 -0.281,2.308 -0.59,4.609 -0.82,6.918 -0.199,2.031 -0.43,4.019 -0.59,6.012 -0.231,2.347 -0.391,4.687 -0.582,7.07 l -0.359,6.129 c -0.11,2.347 -0.231,4.73 -0.27,7.039 -0.121,3.238 -0.199,6.441 -0.199,9.719 0,7.351 0.277,15 0.828,22.781 l 0.152,1.988 c 0.469,6.524 1.207,13.402 2.149,20.352 l 0.55,3.871 c 1.008,6.719 2.11,13.429 3.469,20.109 l 0.551,2.352 c 1.41,6.558 2.93,13.039 4.84,20.308 l 0.32,1.211 c 1.91,6.918 4.02,13.828 6.289,20.668 l 1.832,5.153 c 1.719,5.078 3.559,10.117 5.508,15.16 0.66,1.758 2.813,6.988 2.813,6.988 1.796,4.371 3.597,8.711 5.507,13.012 1.051,2.418 2.153,4.797 3.243,7.218 1.527,3.29 3.128,6.532 5.16,10.668 1.949,3.981 3.937,7.93 5.968,11.872 1.719,3.25 3.442,6.41 5.2,9.652 2.148,3.867 4.34,7.738 6.558,11.598 1.801,3.089 3.641,6.21 5.512,9.3 2.34,3.871 4.73,7.7 7.148,11.52 l 0.622,0.941 c 1.679,2.617 3.32,5.27 5.039,7.848 2.582,3.871 5.203,7.742 7.851,11.531 0,0 4.301,6.25 5.75,8.238 2.692,3.872 5.5,7.653 8.32,11.403 0,0 4.329,5.859 5.86,7.929 2.769,3.598 5.582,7.11 8.941,11.372 0,0 4.418,5.628 5.739,7.226 3.32,4.063 6.679,8.043 10.039,12.031 l 5.043,5.981 c 5.039,5.859 10.16,11.64 15.277,17.262 l 5.191,5.699 6.168,-4.371 c 15.59,-11.059 31.172,-22.418 46.371,-33.789 17.5,-13.121 34.653,-26.411 51.02,-39.45 18.43,-14.769 36.25,-29.652 52.961,-44.179 16.289,-14.141 31.801,-28.242 46.449,-42.192 v -0.082 c 1.949,-1.828 4.063,-3.707 5.981,-5.578 7.179,-6.922 14.289,-13.988 21.281,-21.058 l 5.668,-5.821 C 510,782.301 515.66,776.328 521.25,770.27 l 3.828,-4.098 c 6.641,-7.301 13.082,-14.613 19.332,-21.953 l 4.18,-5.039 c 4.961,-5.942 9.769,-11.91 14.461,-17.891 l 1.597,-2.07 c 1.442,-1.879 2.891,-3.707 4.301,-5.547 l 3.281,-4.41 c 3.36,-4.532 6.68,-9.102 9.801,-13.641 l 1.797,-2.531 c 3.633,-5.238 7.07,-10.551 10.391,-15.789 l 2.691,-4.332 c 2.539,-4.18 5.039,-8.36 7.43,-12.539 l 2.34,-4.102 c 2.929,-5.308 5.742,-10.668 8.359,-15.976 l 1.289,-2.774 c 2.152,-4.527 4.184,-9.027 6.012,-13.476 0.672,-1.524 1.289,-3.012 1.879,-4.532 2.07,-5.121 3.98,-10.269 5.66,-15.39 l 0.59,-1.95 c 1.679,-5.16 3.121,-10.32 4.492,-15.902 l 0.269,-1.168 c 1.372,-5.898 2.5,-11.762 3.25,-17.351 l 0.11,-0.739 c 0.75,-5.468 1.211,-11.05 1.41,-16.48 l 0.039,-1.18 c 0.121,-3.39 0.082,-6.711 -0.039,-9.961 0,-0.469 0,-0.898 0,-1.398 -1.559,-43.172 19.801,-34.531 27.66,-13.211 0.781,2.5 1.559,5.039 2.34,7.582 0.738,2.539 1.48,5.078 2.148,7.457 1.332,5.082 2.582,10.391 3.793,15.98 1.207,5.59 2.34,11.371 3.399,17.379 1.051,5.981 1.988,12.153 2.851,18.442 0.86,6.332 1.598,12.769 2.149,19.058 0.109,1.723 0.23,3.481 0.308,5.282 0.082,1.71 0.153,3.39 0.231,5.23 0.043,1.762 0.082,3.48 0.121,5.23 0.039,1.719 0.039,3.481 0.039,5.2 0,37.3 -6.68,75.82 -19.879,114.531 -11.879,34.769 -29.219,70.391 -51.64,105.937 -19.61,31.133 -43.481,62.731 -70.86,93.903 -21.531,24.5 -45.551,48.988 -71.371,72.899 v 0.03 c -1.949,1.8 -3.828,3.64 -5.777,5.43 -10.782,9.85 -21.992,19.73 -33.364,29.3 -10.117,8.52 -20.468,16.99 -30.777,25.12 l -17.312,13.47 12.781,10.08 c 2.73,2.19 5.461,4.34 8.039,6.29 10.75,8.24 21.601,16.29 32.312,23.95 9.137,6.48 16.52,11.52 21.598,14.92 6.133,4.02 16.602,5.51 23.402,1.01 l 9.571,-6.4 12.457,-8.71 7.07,-5.04 8.981,-6.53 c 0,0 5.75,-4.29 8.679,-6.48 0,0 10.461,-7.97 13.352,-10.23 l 16.527,-13.09 c 4.332,-3.48 8.793,-7.11 13.281,-10.82 l 2.93,-2.5 c 3.59,-2.97 7.231,-6.05 10.902,-9.18 l 4.329,-3.75 c 3.64,-3.12 7.308,-6.37 11.019,-9.65 l 3.551,-3.16 c 4.769,-4.26 9.57,-8.64 14.422,-13.13 l 3.59,-3.4 c 3.238,-3 6.488,-6.09 9.769,-9.25 7.301,-7.03 14.68,-14.26 22.027,-21.76 l 3.481,-3.63 c 6.441,-6.61 12.851,-13.442 19.211,-20.43 l 5.281,-5.789 c 7.77,-8.633 14.758,-16.711 21.481,-24.762 l 3.628,-4.531 c 6.141,-7.418 12.11,-15.039 17.969,-22.777 0,0 4.692,-6.129 6.102,-8.039 l 4.14,-5.672 c 3.36,-4.68 6.68,-9.371 9.918,-14.141 l 3.629,-5.269 c 4.301,-6.41 8.481,-12.852 12.543,-19.41 l 1.84,-3.051 c 3.399,-5.59 6.719,-11.207 9.961,-16.949 2.188,-3.872 4.406,-7.782 6.559,-11.84 l 0.82,-1.52 c 2.699,-5.121 5.269,-10.238 7.769,-15.359 l 1.758,-3.629 c 2.352,-4.844 4.571,-9.762 6.844,-14.844 l 0.469,-1.129 c 2.34,-5.277 4.488,-10.59 6.597,-16.019 l 1.403,-3.668 c 1.918,-4.961 3.679,-9.891 5.59,-15.512 l 0.347,-0.98 c 1.801,-5.348 3.442,-10.739 5,-16.129 l 1.172,-4.18 c 1.41,-4.961 2.699,-10 4.031,-15.59 l 0.27,-1.172 c 1.289,-5.539 2.418,-11.129 3.437,-16.679 0.313,-1.79 0.622,-3.629 0.942,-5.469 0.351,-2.223 0.742,-4.449 1.051,-6.641 0.308,-2.07 0.589,-4.14 0.82,-6.172 0.309,-2.297 0.59,-4.609 0.82,-6.91 0.239,-2.027 0.43,-4.027 0.629,-6.019 0.192,-2.34 0.391,-4.688 0.539,-7.071 l 0.391,-6.129 c 0.082,-2.339 0.199,-4.73 0.281,-7.07 0.078,-3.199 0.188,-6.41 0.188,-9.687 0,-7.34 -0.309,-15 -0.821,-22.774 z m 108.051,39.723 c -2.848,73.48 -24.449,148.828 -64.219,224.027 -34.691,65.582 -83.238,131.402 -144.371,195.542 -44.418,46.65 -94.301,91.29 -148.211,132.78 -41.949,32.26 -71.789,51.17 -75.039,53.24 l -35.66,22.38 -36.09,-22.69 c -1.289,-0.82 -4.73,-3.01 -10,-6.56 -6.289,-4.18 -15.16,-10.24 -26.097,-18.01 -12.622,-8.99 -25.551,-18.52 -38.321,-28.4 -16.011,-12.31 -31.91,-25.08 -47.5,-38.16 -7.543,-5.9 -28.011,-22.31 -55,-47.54 -38.633,-36.1 -74.332,-74.69 -106.09,-114.77 C 108.672,965.43 74.0586,909.41 49.3789,853.871 18.9102,785.391 3.48047,717.301 3.48047,651.52 c 0,-5.622 0.10937,-11.25 0.30859,-16.95 C 6.64063,561.129 28.2813,485.738 68.0117,410.59 102.699,344.961 151.289,279.18 212.379,215 256.84,168.398 306.68,123.711 360.629,82.2695 c 41.949,-32.3086 71.75,-51.2187 75.031,-53.25 l 35.629,-22.41794 36.09,22.69924 c 1.332,0.8594 4.769,3.039 10.043,6.5586 6.289,4.1797 15.156,10.2304 26.098,18.0117 12.609,8.9805 25.5,18.5508 38.32,28.3984 16.012,12.3399 31.91,25.0705 47.461,38.1995 7.539,5.902 28,22.301 55,47.5 38.668,36.133 74.371,74.73 106.09,114.761 43.558,54.969 78.129,110.981 102.808,166.532 30.512,68.508 45.942,136.597 45.942,202.379 0,5.629 -0.121,11.25 -0.352,16.91"
         style="fill:#1b807e;fill-opacity:1;fill-rule:nonzero;stroke:none"
         id="path24"
         inkscape:connector-curvature="0" /></g></g></svg>